<mxfile host="65bd71144e">
    <diagram id="6a731a19-8d31-9384-78a2-239565b7b9f0" name="Page-1">
        <mxGraphModel dx="3667" dy="1460" grid="1" gridSize="10" guides="1" tooltips="1" connect="1" arrows="1" fold="1" page="1" pageScale="1" pageWidth="1169" pageHeight="827" background="#ffffff" math="0" shadow="0">
            <root>
                <mxCell id="0"/>
                <mxCell id="1" parent="0"/>
                <mxCell id="1746" value="" style="edgeStyle=none;rounded=0;jumpStyle=none;html=1;shadow=0;labelBackgroundColor=none;startArrow=none;startFill=0;endArrow=classic;endFill=1;jettySize=auto;orthogonalLoop=1;strokeColor=#2F5B7C;strokeWidth=3;fontFamily=Helvetica;fontSize=16;fontColor=#23445D;spacing=5;entryX=0;entryY=0.5;entryDx=0;entryDy=0;" parent="1" source="1749" target="1778" edge="1">
                    <mxGeometry relative="1" as="geometry"/>
                </mxCell>
                <mxCell id="hfxsvpwYoOtFmAZEk8l7-1839" style="edgeStyle=orthogonalEdgeStyle;rounded=0;orthogonalLoop=1;jettySize=auto;html=1;" parent="1" source="1749" target="hfxsvpwYoOtFmAZEk8l7-1786" edge="1">
                    <mxGeometry relative="1" as="geometry"/>
                </mxCell>
                <mxCell id="hfxsvpwYoOtFmAZEk8l7-1840" style="edgeStyle=orthogonalEdgeStyle;rounded=0;orthogonalLoop=1;jettySize=auto;html=1;" parent="1" source="1749" target="1764" edge="1">
                    <mxGeometry relative="1" as="geometry"/>
                </mxCell>
                <mxCell id="1749" value="Dispatcher" style="rounded=1;whiteSpace=wrap;html=1;shadow=0;labelBackgroundColor=none;strokeColor=none;strokeWidth=3;fillColor=#2F5B7C;fontFamily=Helvetica;fontSize=16;fontColor=#FFFFFF;align=center;fontStyle=1;spacing=5;arcSize=7;perimeterSpacing=2;" parent="1" vertex="1">
                    <mxGeometry x="-480" y="623.5" width="150" height="70" as="geometry"/>
                </mxCell>
                <mxCell id="1764" value="Vault" style="rounded=1;whiteSpace=wrap;html=1;shadow=0;labelBackgroundColor=none;strokeColor=none;strokeWidth=3;fillColor=#F08705;fontFamily=Helvetica;fontSize=14;fontColor=#FFFFFF;align=center;spacing=5;fontStyle=1;arcSize=7;perimeterSpacing=2;" parent="1" vertex="1">
                    <mxGeometry x="-170" y="937.5" width="150" height="60" as="geometry"/>
                </mxCell>
                <mxCell id="1765" value="Access and download" style="rounded=1;whiteSpace=wrap;html=1;shadow=0;labelBackgroundColor=none;strokeColor=none;strokeWidth=3;fillColor=#f5af58;fontFamily=Helvetica;fontSize=14;fontColor=#FFFFFF;align=center;spacing=5;arcSize=7;perimeterSpacing=2;" parent="1" vertex="1">
                    <mxGeometry x="-360" y="1017.5" width="150" height="60" as="geometry"/>
                </mxCell>
                <mxCell id="1766" value="" style="edgeStyle=none;rounded=0;jumpStyle=none;html=1;shadow=0;labelBackgroundColor=none;startArrow=none;startFill=0;endArrow=classic;endFill=1;jettySize=auto;orthogonalLoop=1;strokeColor=#F08705;strokeWidth=3;fontFamily=Helvetica;fontSize=14;fontColor=#FFFFFF;spacing=5;" parent="1" source="1764" target="1765" edge="1">
                    <mxGeometry relative="1" as="geometry"/>
                </mxCell>
                <mxCell id="1767" value="Authentication" style="rounded=1;whiteSpace=wrap;html=1;shadow=0;labelBackgroundColor=none;strokeColor=none;strokeWidth=3;fillColor=#f5af58;fontFamily=Helvetica;fontSize=14;fontColor=#FFFFFF;align=center;spacing=5;arcSize=7;perimeterSpacing=2;" parent="1" vertex="1">
                    <mxGeometry x="-360" y="934" width="150" height="60" as="geometry"/>
                </mxCell>
                <mxCell id="1768" value="" style="edgeStyle=none;rounded=0;jumpStyle=none;html=1;shadow=0;labelBackgroundColor=none;startArrow=none;startFill=0;endArrow=classic;endFill=1;jettySize=auto;orthogonalLoop=1;strokeColor=#F08705;strokeWidth=3;fontFamily=Helvetica;fontSize=14;fontColor=#FFFFFF;spacing=5;" parent="1" source="1764" target="1767" edge="1">
                    <mxGeometry relative="1" as="geometry"/>
                </mxCell>
                <mxCell id="1769" value="Criptography" style="rounded=1;whiteSpace=wrap;html=1;shadow=0;labelBackgroundColor=none;strokeColor=none;strokeWidth=3;fillColor=#f5af58;fontFamily=Helvetica;fontSize=14;fontColor=#FFFFFF;align=center;spacing=5;arcSize=7;perimeterSpacing=2;" parent="1" vertex="1">
                    <mxGeometry x="-360" y="832" width="150" height="60" as="geometry"/>
                </mxCell>
                <mxCell id="1770" value="" style="edgeStyle=none;rounded=0;jumpStyle=none;html=1;shadow=0;labelBackgroundColor=none;startArrow=none;startFill=0;endArrow=classic;endFill=1;jettySize=auto;orthogonalLoop=1;strokeColor=#F08705;strokeWidth=3;fontFamily=Helvetica;fontSize=14;fontColor=#FFFFFF;spacing=5;" parent="1" source="1764" target="1769" edge="1">
                    <mxGeometry relative="1" as="geometry"/>
                </mxCell>
                <mxCell id="1771" value="BackEnd" style="rounded=1;whiteSpace=wrap;html=1;shadow=0;labelBackgroundColor=none;strokeColor=none;strokeWidth=3;fillColor=#12aab5;fontFamily=Helvetica;fontSize=14;fontColor=#FFFFFF;align=center;spacing=5;fontStyle=1;arcSize=7;perimeterSpacing=2;" parent="1" vertex="1">
                    <mxGeometry x="70" y="1017.4999999999999" width="150" height="60" as="geometry"/>
                </mxCell>
                <mxCell id="1778" value="FrontEnd" style="rounded=1;whiteSpace=wrap;html=1;shadow=0;labelBackgroundColor=none;strokeColor=none;strokeWidth=3;fillColor=#61c6ce;fontFamily=Helvetica;fontSize=14;fontColor=#FFFFFF;align=center;spacing=5;fontStyle=0;arcSize=7;perimeterSpacing=2;" parent="1" vertex="1">
                    <mxGeometry x="410" y="676" width="150" height="60" as="geometry"/>
                </mxCell>
                <mxCell id="1779" value="" style="edgeStyle=none;rounded=1;jumpStyle=none;html=1;shadow=0;labelBackgroundColor=none;startArrow=none;startFill=0;jettySize=auto;orthogonalLoop=1;strokeColor=#12AAB5;strokeWidth=3;fontFamily=Helvetica;fontSize=14;fontColor=#FFFFFF;spacing=5;fontStyle=1;fillColor=#b0e3e6;" parent="1" source="1771" target="1778" edge="1">
                    <mxGeometry relative="1" as="geometry"/>
                </mxCell>
                <mxCell id="hfxsvpwYoOtFmAZEk8l7-1779" value="" style="edgeStyle=none;rounded=1;jumpStyle=none;html=1;shadow=0;labelBackgroundColor=none;startArrow=none;startFill=0;jettySize=auto;orthogonalLoop=1;strokeColor=#E85642;strokeWidth=3;fontFamily=Helvetica;fontSize=14;fontColor=#FFFFFF;spacing=5;fontStyle=1;fillColor=#b0e3e6;" parent="1" source="hfxsvpwYoOtFmAZEk8l7-1782" target="hfxsvpwYoOtFmAZEk8l7-1785" edge="1">
                    <mxGeometry relative="1" as="geometry"/>
                </mxCell>
                <mxCell id="hfxsvpwYoOtFmAZEk8l7-1780" value="" style="edgeStyle=none;rounded=1;jumpStyle=none;html=1;shadow=0;labelBackgroundColor=none;startArrow=none;startFill=0;jettySize=auto;orthogonalLoop=1;strokeColor=#E85642;strokeWidth=3;fontFamily=Helvetica;fontSize=14;fontColor=#FFFFFF;spacing=5;fontStyle=1;fillColor=#b0e3e6;" parent="1" source="hfxsvpwYoOtFmAZEk8l7-1782" target="hfxsvpwYoOtFmAZEk8l7-1784" edge="1">
                    <mxGeometry relative="1" as="geometry"/>
                </mxCell>
                <mxCell id="hfxsvpwYoOtFmAZEk8l7-1782" value="KEYBOARD" style="rounded=1;whiteSpace=wrap;html=1;shadow=0;labelBackgroundColor=none;strokeColor=none;strokeWidth=3;fillColor=#e85642;fontFamily=Helvetica;fontSize=14;fontColor=#FFFFFF;align=center;spacing=5;fontStyle=1;arcSize=7;perimeterSpacing=2;" parent="1" vertex="1">
                    <mxGeometry x="-875" y="525.5" width="150" height="60" as="geometry"/>
                </mxCell>
                <mxCell id="hfxsvpwYoOtFmAZEk8l7-1784" value="ReadEvents" style="rounded=1;whiteSpace=wrap;html=1;shadow=0;labelBackgroundColor=none;strokeColor=none;strokeWidth=3;fillColor=#f08e81;fontFamily=Helvetica;fontSize=14;fontColor=#FFFFFF;align=center;spacing=5;fontStyle=0;arcSize=7;perimeterSpacing=2;" parent="1" vertex="1">
                    <mxGeometry x="-1090" y="465.5" width="150" height="60" as="geometry"/>
                </mxCell>
                <mxCell id="hfxsvpwYoOtFmAZEk8l7-1785" value="JSON" style="rounded=1;whiteSpace=wrap;html=1;shadow=0;labelBackgroundColor=none;strokeColor=none;strokeWidth=3;fillColor=#f08e81;fontFamily=Helvetica;fontSize=14;fontColor=#FFFFFF;align=center;spacing=5;fontStyle=0;arcSize=7;perimeterSpacing=2;" parent="1" vertex="1">
                    <mxGeometry x="-875" y="404.5" width="150" height="60" as="geometry"/>
                </mxCell>
                <mxCell id="hfxsvpwYoOtFmAZEk8l7-1786" value="Share" style="rounded=1;whiteSpace=wrap;html=1;shadow=0;labelBackgroundColor=none;strokeColor=none;strokeWidth=3;fillColor=#F08705;fontFamily=Helvetica;fontSize=14;fontColor=#FFFFFF;align=center;spacing=5;fontStyle=1;arcSize=7;perimeterSpacing=2;" parent="1" vertex="1">
                    <mxGeometry x="-360" y="1134" width="150" height="60" as="geometry"/>
                </mxCell>
                <mxCell id="hfxsvpwYoOtFmAZEk8l7-1790" value="" style="edgeStyle=none;rounded=0;jumpStyle=none;html=1;shadow=0;labelBackgroundColor=none;startArrow=none;startFill=0;endArrow=classic;endFill=1;jettySize=auto;orthogonalLoop=1;strokeColor=#F08705;strokeWidth=3;fontFamily=Helvetica;fontSize=14;fontColor=#FFFFFF;spacing=5;entryX=0.5;entryY=0;entryDx=0;entryDy=0;" parent="1" source="hfxsvpwYoOtFmAZEk8l7-1786" target="hfxsvpwYoOtFmAZEk8l7-1791" edge="1">
                    <mxGeometry relative="1" as="geometry">
                        <mxPoint x="-281" y="1317.5" as="targetPoint"/>
                    </mxGeometry>
                </mxCell>
                <mxCell id="hfxsvpwYoOtFmAZEk8l7-1791" value="FileSystem" style="rounded=1;whiteSpace=wrap;html=1;shadow=0;labelBackgroundColor=none;strokeColor=none;strokeWidth=3;fillColor=#f5af58;fontFamily=Helvetica;fontSize=14;fontColor=#FFFFFF;align=center;spacing=5;arcSize=7;perimeterSpacing=2;" parent="1" vertex="1">
                    <mxGeometry x="-360" y="1237.5" width="150" height="60" as="geometry"/>
                </mxCell>
                <mxCell id="hfxsvpwYoOtFmAZEk8l7-1795" value="" style="edgeStyle=none;rounded=1;jumpStyle=none;html=1;shadow=0;labelBackgroundColor=none;startArrow=none;startFill=0;jettySize=auto;orthogonalLoop=1;strokeColor=#E85642;strokeWidth=3;fontFamily=Helvetica;fontSize=14;fontColor=#FFFFFF;spacing=5;fontStyle=1;fillColor=#b0e3e6;exitX=0;exitY=0.5;exitDx=0;exitDy=0;entryX=1;entryY=0.25;entryDx=0;entryDy=0;" parent="1" source="hfxsvpwYoOtFmAZEk8l7-1782" target="hfxsvpwYoOtFmAZEk8l7-1798" edge="1">
                    <mxGeometry relative="1" as="geometry">
                        <mxPoint x="-875" y="683.0116279069766" as="sourcePoint"/>
                    </mxGeometry>
                </mxCell>
                <mxCell id="hfxsvpwYoOtFmAZEk8l7-1796" value="" style="edgeStyle=none;rounded=1;jumpStyle=none;html=1;shadow=0;labelBackgroundColor=none;startArrow=none;startFill=0;jettySize=auto;orthogonalLoop=1;strokeColor=#E85642;strokeWidth=3;fontFamily=Helvetica;fontSize=14;fontColor=#FFFFFF;spacing=5;fontStyle=1;fillColor=#b0e3e6;exitX=0;exitY=0.75;exitDx=0;exitDy=0;entryX=1;entryY=0.25;entryDx=0;entryDy=0;" parent="1" source="hfxsvpwYoOtFmAZEk8l7-1782" target="hfxsvpwYoOtFmAZEk8l7-1797" edge="1">
                    <mxGeometry relative="1" as="geometry">
                        <mxPoint x="-875" y="711.3046511627906" as="sourcePoint"/>
                    </mxGeometry>
                </mxCell>
                <mxCell id="hfxsvpwYoOtFmAZEk8l7-1797" value="Different Locale" style="rounded=1;whiteSpace=wrap;html=1;shadow=0;labelBackgroundColor=none;strokeColor=none;strokeWidth=3;fillColor=#f08e81;fontFamily=Helvetica;fontSize=14;fontColor=#FFFFFF;align=center;spacing=5;fontStyle=0;arcSize=7;perimeterSpacing=2;" parent="1" vertex="1">
                    <mxGeometry x="-1090" y="623.5" width="150" height="60" as="geometry"/>
                </mxCell>
                <mxCell id="hfxsvpwYoOtFmAZEk8l7-1798" value="SetLighting" style="rounded=1;whiteSpace=wrap;html=1;shadow=0;labelBackgroundColor=none;strokeColor=none;strokeWidth=3;fillColor=#f08e81;fontFamily=Helvetica;fontSize=14;fontColor=#FFFFFF;align=center;spacing=5;fontStyle=0;arcSize=7;perimeterSpacing=2;" parent="1" vertex="1">
                    <mxGeometry x="-1090" y="544.5" width="150" height="60" as="geometry"/>
                </mxCell>
                <mxCell id="hfxsvpwYoOtFmAZEk8l7-1799" value="" style="edgeStyle=none;rounded=1;jumpStyle=none;html=1;shadow=0;labelBackgroundColor=none;startArrow=none;startFill=0;jettySize=auto;orthogonalLoop=1;strokeColor=#E85642;strokeWidth=3;fontFamily=Helvetica;fontSize=14;fontColor=#FFFFFF;spacing=5;fontStyle=1;fillColor=#b0e3e6;" parent="1" source="hfxsvpwYoOtFmAZEk8l7-1802" target="hfxsvpwYoOtFmAZEk8l7-1805" edge="1">
                    <mxGeometry relative="1" as="geometry"/>
                </mxCell>
                <mxCell id="hfxsvpwYoOtFmAZEk8l7-1800" value="" style="edgeStyle=none;rounded=1;jumpStyle=none;html=1;shadow=0;labelBackgroundColor=none;startArrow=none;startFill=0;jettySize=auto;orthogonalLoop=1;strokeColor=#E85642;strokeWidth=3;fontFamily=Helvetica;fontSize=14;fontColor=#FFFFFF;spacing=5;fontStyle=1;fillColor=#b0e3e6;" parent="1" source="hfxsvpwYoOtFmAZEk8l7-1802" target="hfxsvpwYoOtFmAZEk8l7-1804" edge="1">
                    <mxGeometry relative="1" as="geometry"/>
                </mxCell>
                <mxCell id="hfxsvpwYoOtFmAZEk8l7-1802" value="MOUSE" style="rounded=1;whiteSpace=wrap;html=1;shadow=0;labelBackgroundColor=none;strokeColor=none;strokeWidth=3;fillColor=#e85642;fontFamily=Helvetica;fontSize=14;fontColor=#FFFFFF;align=center;spacing=5;fontStyle=1;arcSize=7;perimeterSpacing=2;" parent="1" vertex="1">
                    <mxGeometry x="-873" y="825.5" width="150" height="60" as="geometry"/>
                </mxCell>
                <mxCell id="hfxsvpwYoOtFmAZEk8l7-1804" value="ReadEvents" style="rounded=1;whiteSpace=wrap;html=1;shadow=0;labelBackgroundColor=none;strokeColor=none;strokeWidth=3;fillColor=#f08e81;fontFamily=Helvetica;fontSize=14;fontColor=#FFFFFF;align=center;spacing=5;fontStyle=0;arcSize=7;perimeterSpacing=2;" parent="1" vertex="1">
                    <mxGeometry x="-1088" y="765.5" width="150" height="60" as="geometry"/>
                </mxCell>
                <mxCell id="hfxsvpwYoOtFmAZEk8l7-1805" value="JSON" style="rounded=1;whiteSpace=wrap;html=1;shadow=0;labelBackgroundColor=none;strokeColor=none;strokeWidth=3;fillColor=#f08e81;fontFamily=Helvetica;fontSize=14;fontColor=#FFFFFF;align=center;spacing=5;fontStyle=0;arcSize=7;perimeterSpacing=2;" parent="1" vertex="1">
                    <mxGeometry x="-873" y="704.5" width="150" height="60" as="geometry"/>
                </mxCell>
                <mxCell id="hfxsvpwYoOtFmAZEk8l7-1806" value="" style="edgeStyle=none;rounded=1;jumpStyle=none;html=1;shadow=0;labelBackgroundColor=none;startArrow=none;startFill=0;jettySize=auto;orthogonalLoop=1;strokeColor=#E85642;strokeWidth=3;fontFamily=Helvetica;fontSize=14;fontColor=#FFFFFF;spacing=5;fontStyle=1;fillColor=#b0e3e6;exitX=0;exitY=0.5;exitDx=0;exitDy=0;entryX=1;entryY=0.25;entryDx=0;entryDy=0;" parent="1" source="hfxsvpwYoOtFmAZEk8l7-1802" target="hfxsvpwYoOtFmAZEk8l7-1809" edge="1">
                    <mxGeometry relative="1" as="geometry">
                        <mxPoint x="-873" y="983.0116279069766" as="sourcePoint"/>
                    </mxGeometry>
                </mxCell>
                <mxCell id="hfxsvpwYoOtFmAZEk8l7-1807" value="" style="edgeStyle=none;rounded=1;jumpStyle=none;html=1;shadow=0;labelBackgroundColor=none;startArrow=none;startFill=0;jettySize=auto;orthogonalLoop=1;strokeColor=#E85642;strokeWidth=3;fontFamily=Helvetica;fontSize=14;fontColor=#FFFFFF;spacing=5;fontStyle=1;fillColor=#b0e3e6;exitX=0;exitY=0.75;exitDx=0;exitDy=0;entryX=1;entryY=0.25;entryDx=0;entryDy=0;" parent="1" source="hfxsvpwYoOtFmAZEk8l7-1802" target="hfxsvpwYoOtFmAZEk8l7-1808" edge="1">
                    <mxGeometry relative="1" as="geometry">
                        <mxPoint x="-873" y="1011.3046511627906" as="sourcePoint"/>
                    </mxGeometry>
                </mxCell>
                <mxCell id="hfxsvpwYoOtFmAZEk8l7-1808" value="Different Locale" style="rounded=1;whiteSpace=wrap;html=1;shadow=0;labelBackgroundColor=none;strokeColor=none;strokeWidth=3;fillColor=#f08e81;fontFamily=Helvetica;fontSize=14;fontColor=#FFFFFF;align=center;spacing=5;fontStyle=0;arcSize=7;perimeterSpacing=2;" parent="1" vertex="1">
                    <mxGeometry x="-1086" y="924.5" width="150" height="60" as="geometry"/>
                </mxCell>
                <mxCell id="hfxsvpwYoOtFmAZEk8l7-1809" value="SetLighting" style="rounded=1;whiteSpace=wrap;html=1;shadow=0;labelBackgroundColor=none;strokeColor=none;strokeWidth=3;fillColor=#f08e81;fontFamily=Helvetica;fontSize=14;fontColor=#FFFFFF;align=center;spacing=5;fontStyle=0;arcSize=7;perimeterSpacing=2;" parent="1" vertex="1">
                    <mxGeometry x="-1086" y="845.5" width="150" height="60" as="geometry"/>
                </mxCell>
                <mxCell id="hfxsvpwYoOtFmAZEk8l7-1810" value="" style="edgeStyle=none;rounded=1;jumpStyle=none;html=1;shadow=0;labelBackgroundColor=none;startArrow=none;startFill=0;jettySize=auto;orthogonalLoop=1;strokeColor=#E85642;strokeWidth=3;fontFamily=Helvetica;fontSize=14;fontColor=#FFFFFF;spacing=5;fontStyle=1;fillColor=#b0e3e6;" parent="1" source="hfxsvpwYoOtFmAZEk8l7-1813" target="hfxsvpwYoOtFmAZEk8l7-1816" edge="1">
                    <mxGeometry relative="1" as="geometry"/>
                </mxCell>
                <mxCell id="hfxsvpwYoOtFmAZEk8l7-1811" value="" style="edgeStyle=none;rounded=1;jumpStyle=none;html=1;shadow=0;labelBackgroundColor=none;startArrow=none;startFill=0;jettySize=auto;orthogonalLoop=1;strokeColor=#E85642;strokeWidth=3;fontFamily=Helvetica;fontSize=14;fontColor=#FFFFFF;spacing=5;fontStyle=1;fillColor=#b0e3e6;" parent="1" source="hfxsvpwYoOtFmAZEk8l7-1813" target="hfxsvpwYoOtFmAZEk8l7-1815" edge="1">
                    <mxGeometry relative="1" as="geometry"/>
                </mxCell>
                <mxCell id="hfxsvpwYoOtFmAZEk8l7-1813" value="JOYSTICK" style="rounded=1;whiteSpace=wrap;html=1;shadow=0;labelBackgroundColor=none;strokeColor=none;strokeWidth=3;fillColor=#e85642;fontFamily=Helvetica;fontSize=14;fontColor=#FFFFFF;align=center;spacing=5;fontStyle=1;arcSize=7;perimeterSpacing=2;" parent="1" vertex="1">
                    <mxGeometry x="-871" y="1105.5" width="150" height="60" as="geometry"/>
                </mxCell>
                <mxCell id="hfxsvpwYoOtFmAZEk8l7-1815" value="ReadEvents" style="rounded=1;whiteSpace=wrap;html=1;shadow=0;labelBackgroundColor=none;strokeColor=none;strokeWidth=3;fillColor=#f08e81;fontFamily=Helvetica;fontSize=14;fontColor=#FFFFFF;align=center;spacing=5;fontStyle=0;arcSize=7;perimeterSpacing=2;" parent="1" vertex="1">
                    <mxGeometry x="-1086" y="1045.5" width="150" height="60" as="geometry"/>
                </mxCell>
                <mxCell id="hfxsvpwYoOtFmAZEk8l7-1816" value="JSON" style="rounded=1;whiteSpace=wrap;html=1;shadow=0;labelBackgroundColor=none;strokeColor=none;strokeWidth=3;fillColor=#f08e81;fontFamily=Helvetica;fontSize=14;fontColor=#FFFFFF;align=center;spacing=5;fontStyle=0;arcSize=7;perimeterSpacing=2;" parent="1" vertex="1">
                    <mxGeometry x="-871" y="984.5" width="150" height="60" as="geometry"/>
                </mxCell>
                <mxCell id="hfxsvpwYoOtFmAZEk8l7-1817" value="" style="edgeStyle=none;rounded=1;jumpStyle=none;html=1;shadow=0;labelBackgroundColor=none;startArrow=none;startFill=0;jettySize=auto;orthogonalLoop=1;strokeColor=#E85642;strokeWidth=3;fontFamily=Helvetica;fontSize=14;fontColor=#FFFFFF;spacing=5;fontStyle=1;fillColor=#b0e3e6;exitX=0;exitY=0.5;exitDx=0;exitDy=0;entryX=1;entryY=0.25;entryDx=0;entryDy=0;" parent="1" source="hfxsvpwYoOtFmAZEk8l7-1813" target="hfxsvpwYoOtFmAZEk8l7-1820" edge="1">
                    <mxGeometry relative="1" as="geometry">
                        <mxPoint x="-871" y="1263.0116279069766" as="sourcePoint"/>
                    </mxGeometry>
                </mxCell>
                <mxCell id="hfxsvpwYoOtFmAZEk8l7-1818" value="" style="edgeStyle=none;rounded=1;jumpStyle=none;html=1;shadow=0;labelBackgroundColor=none;startArrow=none;startFill=0;jettySize=auto;orthogonalLoop=1;strokeColor=#E85642;strokeWidth=3;fontFamily=Helvetica;fontSize=14;fontColor=#FFFFFF;spacing=5;fontStyle=1;fillColor=#b0e3e6;exitX=0;exitY=0.75;exitDx=0;exitDy=0;entryX=1;entryY=0.25;entryDx=0;entryDy=0;" parent="1" source="hfxsvpwYoOtFmAZEk8l7-1813" target="hfxsvpwYoOtFmAZEk8l7-1819" edge="1">
                    <mxGeometry relative="1" as="geometry">
                        <mxPoint x="-871" y="1291.3046511627906" as="sourcePoint"/>
                    </mxGeometry>
                </mxCell>
                <mxCell id="hfxsvpwYoOtFmAZEk8l7-1819" value="Different Locale" style="rounded=1;whiteSpace=wrap;html=1;shadow=0;labelBackgroundColor=none;strokeColor=none;strokeWidth=3;fillColor=#f08e81;fontFamily=Helvetica;fontSize=14;fontColor=#FFFFFF;align=center;spacing=5;fontStyle=0;arcSize=7;perimeterSpacing=2;" parent="1" vertex="1">
                    <mxGeometry x="-1086" y="1208.5" width="150" height="60" as="geometry"/>
                </mxCell>
                <mxCell id="hfxsvpwYoOtFmAZEk8l7-1820" value="SetLighting" style="rounded=1;whiteSpace=wrap;html=1;shadow=0;labelBackgroundColor=none;strokeColor=none;strokeWidth=3;fillColor=#f08e81;fontFamily=Helvetica;fontSize=14;fontColor=#FFFFFF;align=center;spacing=5;fontStyle=0;arcSize=7;perimeterSpacing=2;" parent="1" vertex="1">
                    <mxGeometry x="-1086" y="1129.5" width="150" height="60" as="geometry"/>
                </mxCell>
                <mxCell id="hfxsvpwYoOtFmAZEk8l7-1821" value="" style="edgeStyle=none;rounded=1;jumpStyle=none;html=1;shadow=0;labelBackgroundColor=none;startArrow=none;startFill=0;jettySize=auto;orthogonalLoop=1;strokeColor=#E85642;strokeWidth=3;fontFamily=Helvetica;fontSize=14;fontColor=#FFFFFF;spacing=5;fontStyle=1;fillColor=#b0e3e6;" parent="1" source="hfxsvpwYoOtFmAZEk8l7-1824" target="hfxsvpwYoOtFmAZEk8l7-1827" edge="1">
                    <mxGeometry relative="1" as="geometry"/>
                </mxCell>
                <mxCell id="hfxsvpwYoOtFmAZEk8l7-1822" value="" style="edgeStyle=none;rounded=1;jumpStyle=none;html=1;shadow=0;labelBackgroundColor=none;startArrow=none;startFill=0;jettySize=auto;orthogonalLoop=1;strokeColor=#E85642;strokeWidth=3;fontFamily=Helvetica;fontSize=14;fontColor=#FFFFFF;spacing=5;fontStyle=1;fillColor=#b0e3e6;" parent="1" source="hfxsvpwYoOtFmAZEk8l7-1824" target="hfxsvpwYoOtFmAZEk8l7-1826" edge="1">
                    <mxGeometry relative="1" as="geometry"/>
                </mxCell>
                <mxCell id="hfxsvpwYoOtFmAZEk8l7-1823" value="" style="edgeStyle=none;rounded=1;jumpStyle=none;html=1;shadow=0;labelBackgroundColor=none;startArrow=none;startFill=0;jettySize=auto;orthogonalLoop=1;strokeColor=#E85642;strokeWidth=3;fontFamily=Helvetica;fontSize=14;fontColor=#FFFFFF;spacing=5;fontStyle=1;fillColor=#b0e3e6;" parent="1" target="hfxsvpwYoOtFmAZEk8l7-1825" edge="1">
                    <mxGeometry relative="1" as="geometry">
                        <mxPoint x="-875" y="170" as="sourcePoint"/>
                    </mxGeometry>
                </mxCell>
                <mxCell id="hfxsvpwYoOtFmAZEk8l7-1824" value="MIDI" style="rounded=1;whiteSpace=wrap;html=1;shadow=0;labelBackgroundColor=none;strokeColor=none;strokeWidth=3;fillColor=#e85642;fontFamily=Helvetica;fontSize=14;fontColor=#FFFFFF;align=center;spacing=5;fontStyle=1;arcSize=7;perimeterSpacing=2;" parent="1" vertex="1">
                    <mxGeometry x="-873" y="151" width="150" height="60" as="geometry"/>
                </mxCell>
                <mxCell id="hfxsvpwYoOtFmAZEk8l7-1825" value="SetMode" style="rounded=1;whiteSpace=wrap;html=1;shadow=0;labelBackgroundColor=none;strokeColor=none;strokeWidth=3;fillColor=#f08e81;fontFamily=Helvetica;fontSize=14;fontColor=#FFFFFF;align=center;spacing=5;fontStyle=0;arcSize=7;perimeterSpacing=2;" parent="1" vertex="1">
                    <mxGeometry x="-1088" y="170" width="150" height="60" as="geometry"/>
                </mxCell>
                <mxCell id="hfxsvpwYoOtFmAZEk8l7-1826" value="ReadEvents" style="rounded=1;whiteSpace=wrap;html=1;shadow=0;labelBackgroundColor=none;strokeColor=none;strokeWidth=3;fillColor=#f08e81;fontFamily=Helvetica;fontSize=14;fontColor=#FFFFFF;align=center;spacing=5;fontStyle=0;arcSize=7;perimeterSpacing=2;" parent="1" vertex="1">
                    <mxGeometry x="-1088" y="91" width="150" height="60" as="geometry"/>
                </mxCell>
                <mxCell id="hfxsvpwYoOtFmAZEk8l7-1827" value="JSON" style="rounded=1;whiteSpace=wrap;html=1;shadow=0;labelBackgroundColor=none;strokeColor=none;strokeWidth=3;fillColor=#f08e81;fontFamily=Helvetica;fontSize=14;fontColor=#FFFFFF;align=center;spacing=5;fontStyle=0;arcSize=7;perimeterSpacing=2;" parent="1" vertex="1">
                    <mxGeometry x="-873" y="30" width="150" height="60" as="geometry"/>
                </mxCell>
                <mxCell id="hfxsvpwYoOtFmAZEk8l7-1828" value="" style="edgeStyle=none;rounded=1;jumpStyle=none;html=1;shadow=0;labelBackgroundColor=none;startArrow=none;startFill=0;jettySize=auto;orthogonalLoop=1;strokeColor=#E85642;strokeWidth=3;fontFamily=Helvetica;fontSize=14;fontColor=#FFFFFF;spacing=5;fontStyle=1;fillColor=#b0e3e6;exitX=0;exitY=0.5;exitDx=0;exitDy=0;entryX=1;entryY=0.25;entryDx=0;entryDy=0;" parent="1" source="hfxsvpwYoOtFmAZEk8l7-1824" target="hfxsvpwYoOtFmAZEk8l7-1831" edge="1">
                    <mxGeometry relative="1" as="geometry">
                        <mxPoint x="-873" y="308.5116279069766" as="sourcePoint"/>
                    </mxGeometry>
                </mxCell>
                <mxCell id="hfxsvpwYoOtFmAZEk8l7-1829" value="" style="edgeStyle=none;rounded=1;jumpStyle=none;html=1;shadow=0;labelBackgroundColor=none;startArrow=none;startFill=0;jettySize=auto;orthogonalLoop=1;strokeColor=#E85642;strokeWidth=3;fontFamily=Helvetica;fontSize=14;fontColor=#FFFFFF;spacing=5;fontStyle=1;fillColor=#b0e3e6;exitX=0;exitY=0.75;exitDx=0;exitDy=0;entryX=1;entryY=0.25;entryDx=0;entryDy=0;" parent="1" source="hfxsvpwYoOtFmAZEk8l7-1824" target="hfxsvpwYoOtFmAZEk8l7-1830" edge="1">
                    <mxGeometry relative="1" as="geometry">
                        <mxPoint x="-873" y="336.8046511627906" as="sourcePoint"/>
                    </mxGeometry>
                </mxCell>
                <mxCell id="hfxsvpwYoOtFmAZEk8l7-1830" value="Different Locale" style="rounded=1;whiteSpace=wrap;html=1;shadow=0;labelBackgroundColor=none;strokeColor=none;strokeWidth=3;fillColor=#f08e81;fontFamily=Helvetica;fontSize=14;fontColor=#FFFFFF;align=center;spacing=5;fontStyle=0;arcSize=7;perimeterSpacing=2;" parent="1" vertex="1">
                    <mxGeometry x="-1086" y="319" width="150" height="60" as="geometry"/>
                </mxCell>
                <mxCell id="hfxsvpwYoOtFmAZEk8l7-1831" value="SetLighting" style="rounded=1;whiteSpace=wrap;html=1;shadow=0;labelBackgroundColor=none;strokeColor=none;strokeWidth=3;fillColor=#f08e81;fontFamily=Helvetica;fontSize=14;fontColor=#FFFFFF;align=center;spacing=5;fontStyle=0;arcSize=7;perimeterSpacing=2;" parent="1" vertex="1">
                    <mxGeometry x="-1086" y="240" width="150" height="60" as="geometry"/>
                </mxCell>
                <mxCell id="hfxsvpwYoOtFmAZEk8l7-1848" value="" style="endArrow=classic;html=1;exitX=1;exitY=0.5;exitDx=0;exitDy=0;entryX=0;entryY=0.5;entryDx=0;entryDy=0;" parent="1" source="hfxsvpwYoOtFmAZEk8l7-1802" target="1749" edge="1">
                    <mxGeometry relative="1" as="geometry">
                        <mxPoint x="-701" y="201" as="sourcePoint"/>
                        <mxPoint x="-472" y="240" as="targetPoint"/>
                    </mxGeometry>
                </mxCell>
                <mxCell id="hfxsvpwYoOtFmAZEk8l7-1851" value="" style="endArrow=classic;html=1;exitX=1;exitY=0.5;exitDx=0;exitDy=0;entryX=0;entryY=0.5;entryDx=0;entryDy=0;" parent="1" source="hfxsvpwYoOtFmAZEk8l7-1813" target="1749" edge="1">
                    <mxGeometry relative="1" as="geometry">
                        <mxPoint x="-691" y="211" as="sourcePoint"/>
                        <mxPoint x="-462" y="250" as="targetPoint"/>
                    </mxGeometry>
                </mxCell>
                <mxCell id="1780" value="" style="edgeStyle=none;rounded=1;jumpStyle=none;html=1;shadow=0;labelBackgroundColor=none;startArrow=none;startFill=0;jettySize=auto;orthogonalLoop=1;strokeColor=#E85642;strokeWidth=3;fontFamily=Helvetica;fontSize=14;fontColor=#FFFFFF;spacing=5;fontStyle=1;fillColor=#b0e3e6;" edge="1" parent="1" source="1782" target="1784">
                    <mxGeometry relative="1" as="geometry"/>
                </mxCell>
                <mxCell id="1781" value="" style="edgeStyle=none;rounded=1;jumpStyle=none;html=1;shadow=0;labelBackgroundColor=none;startArrow=none;startFill=0;jettySize=auto;orthogonalLoop=1;strokeColor=#E85642;strokeWidth=3;fontFamily=Helvetica;fontSize=14;fontColor=#FFFFFF;spacing=5;fontStyle=1;fillColor=#b0e3e6;" edge="1" parent="1" source="1782" target="1783">
                    <mxGeometry relative="1" as="geometry"/>
                </mxCell>
                <mxCell id="1782" value="Screen" style="rounded=1;whiteSpace=wrap;html=1;shadow=0;labelBackgroundColor=none;strokeColor=none;strokeWidth=3;fillColor=#e85642;fontFamily=Helvetica;fontSize=14;fontColor=#FFFFFF;align=center;spacing=5;fontStyle=1;arcSize=7;perimeterSpacing=2;" vertex="1" parent="1">
                    <mxGeometry x="-871" y="1411" width="150" height="60" as="geometry"/>
                </mxCell>
                <mxCell id="1783" value="ReadEvents" style="rounded=1;whiteSpace=wrap;html=1;shadow=0;labelBackgroundColor=none;strokeColor=none;strokeWidth=3;fillColor=#f08e81;fontFamily=Helvetica;fontSize=14;fontColor=#FFFFFF;align=center;spacing=5;fontStyle=0;arcSize=7;perimeterSpacing=2;" vertex="1" parent="1">
                    <mxGeometry x="-1086" y="1351" width="150" height="60" as="geometry"/>
                </mxCell>
                <mxCell id="1784" value="JSON" style="rounded=1;whiteSpace=wrap;html=1;shadow=0;labelBackgroundColor=none;strokeColor=none;strokeWidth=3;fillColor=#f08e81;fontFamily=Helvetica;fontSize=14;fontColor=#FFFFFF;align=center;spacing=5;fontStyle=0;arcSize=7;perimeterSpacing=2;" vertex="1" parent="1">
                    <mxGeometry x="-871" y="1290" width="150" height="60" as="geometry"/>
                </mxCell>
                <mxCell id="1785" value="" style="edgeStyle=none;rounded=1;jumpStyle=none;html=1;shadow=0;labelBackgroundColor=none;startArrow=none;startFill=0;jettySize=auto;orthogonalLoop=1;strokeColor=#E85642;strokeWidth=3;fontFamily=Helvetica;fontSize=14;fontColor=#FFFFFF;spacing=5;fontStyle=1;fillColor=#b0e3e6;exitX=0;exitY=0.5;exitDx=0;exitDy=0;entryX=1;entryY=0.25;entryDx=0;entryDy=0;" edge="1" parent="1" source="1782" target="1788">
                    <mxGeometry relative="1" as="geometry">
                        <mxPoint x="-871" y="1568.5116279069766" as="sourcePoint"/>
                    </mxGeometry>
                </mxCell>
                <mxCell id="1786" value="" style="edgeStyle=none;rounded=1;jumpStyle=none;html=1;shadow=0;labelBackgroundColor=none;startArrow=none;startFill=0;jettySize=auto;orthogonalLoop=1;strokeColor=#E85642;strokeWidth=3;fontFamily=Helvetica;fontSize=14;fontColor=#FFFFFF;spacing=5;fontStyle=1;fillColor=#b0e3e6;exitX=0;exitY=0.75;exitDx=0;exitDy=0;entryX=1;entryY=0.25;entryDx=0;entryDy=0;" edge="1" parent="1" source="1782" target="1787">
                    <mxGeometry relative="1" as="geometry">
                        <mxPoint x="-871" y="1596.8046511627906" as="sourcePoint"/>
                    </mxGeometry>
                </mxCell>
                <mxCell id="1787" value="Different Locale" style="rounded=1;whiteSpace=wrap;html=1;shadow=0;labelBackgroundColor=none;strokeColor=none;strokeWidth=3;fillColor=#f08e81;fontFamily=Helvetica;fontSize=14;fontColor=#FFFFFF;align=center;spacing=5;fontStyle=0;arcSize=7;perimeterSpacing=2;" vertex="1" parent="1">
                    <mxGeometry x="-1086" y="1514" width="150" height="60" as="geometry"/>
                </mxCell>
                <mxCell id="1788" value="SetScreen" style="rounded=1;whiteSpace=wrap;html=1;shadow=0;labelBackgroundColor=none;strokeColor=none;strokeWidth=3;fillColor=#f08e81;fontFamily=Helvetica;fontSize=14;fontColor=#FFFFFF;align=center;spacing=5;fontStyle=0;arcSize=7;perimeterSpacing=2;" vertex="1" parent="1">
                    <mxGeometry x="-1086" y="1435" width="150" height="60" as="geometry"/>
                </mxCell>
                <mxCell id="1792" value="" style="edgeStyle=none;rounded=0;jumpStyle=none;html=1;shadow=0;labelBackgroundColor=none;startArrow=none;startFill=0;endArrow=classic;endFill=1;jettySize=auto;orthogonalLoop=1;strokeColor=#2F5B7C;strokeWidth=3;fontFamily=Helvetica;fontSize=16;fontColor=#23445D;spacing=5;exitX=1;exitY=0.5;exitDx=0;exitDy=0;entryX=0;entryY=0.5;entryDx=0;entryDy=0;" edge="1" parent="1" source="1764" target="1771">
                    <mxGeometry relative="1" as="geometry">
                        <mxPoint x="-252.14285714285688" y="428" as="sourcePoint"/>
                        <mxPoint x="70.63706563706546" y="618" as="targetPoint"/>
                    </mxGeometry>
                </mxCell>
                <mxCell id="1793" value="" style="edgeStyle=none;rounded=0;jumpStyle=none;html=1;shadow=0;labelBackgroundColor=none;startArrow=none;startFill=0;endArrow=classic;endFill=1;jettySize=auto;orthogonalLoop=1;strokeColor=#2F5B7C;strokeWidth=3;fontFamily=Helvetica;fontSize=16;fontColor=#23445D;spacing=5;exitX=1;exitY=0.5;exitDx=0;exitDy=0;" edge="1" parent="1" source="hfxsvpwYoOtFmAZEk8l7-1791" target="1771">
                    <mxGeometry relative="1" as="geometry">
                        <mxPoint x="-156" y="927.9200000000002" as="sourcePoint"/>
                        <mxPoint x="60" y="676" as="targetPoint"/>
                    </mxGeometry>
                </mxCell>
                <mxCell id="1795" value="" style="edgeStyle=none;rounded=0;jumpStyle=none;html=1;shadow=0;labelBackgroundColor=none;startArrow=none;startFill=0;endArrow=classic;endFill=1;jettySize=auto;orthogonalLoop=1;strokeColor=#2F5B7C;strokeWidth=3;fontFamily=Helvetica;fontSize=16;fontColor=#23445D;spacing=5;exitX=1;exitY=0.5;exitDx=0;exitDy=0;entryX=0.25;entryY=0;entryDx=0;entryDy=0;" edge="1" parent="1" source="hfxsvpwYoOtFmAZEk8l7-1824" target="1749">
                    <mxGeometry relative="1" as="geometry">
                        <mxPoint x="-660.0007231920199" y="280" as="sourcePoint"/>
                        <mxPoint x="-262.59423940149605" y="612.0000000000005" as="targetPoint"/>
                    </mxGeometry>
                </mxCell>
                <mxCell id="1796" value="" style="edgeStyle=none;rounded=0;jumpStyle=none;html=1;shadow=0;labelBackgroundColor=none;startArrow=none;startFill=0;endArrow=classic;endFill=1;jettySize=auto;orthogonalLoop=1;strokeColor=#2F5B7C;strokeWidth=3;fontFamily=Helvetica;fontSize=16;fontColor=#23445D;spacing=5;exitX=1;exitY=0.5;exitDx=0;exitDy=0;entryX=0;entryY=0.5;entryDx=0;entryDy=0;" edge="1" parent="1" source="hfxsvpwYoOtFmAZEk8l7-1782" target="1749">
                    <mxGeometry relative="1" as="geometry">
                        <mxPoint x="-350.71072319201994" y="352" as="sourcePoint"/>
                        <mxPoint x="-500" y="300" as="targetPoint"/>
                    </mxGeometry>
                </mxCell>
                <mxCell id="1797" value="" style="edgeStyle=none;rounded=0;jumpStyle=none;html=1;shadow=0;labelBackgroundColor=none;startArrow=none;startFill=0;endArrow=classic;endFill=1;jettySize=auto;orthogonalLoop=1;strokeColor=#2F5B7C;strokeWidth=3;fontFamily=Helvetica;fontSize=16;fontColor=#23445D;spacing=5;exitX=1;exitY=0.5;exitDx=0;exitDy=0;entryX=0;entryY=0.75;entryDx=0;entryDy=0;" edge="1" parent="1" source="hfxsvpwYoOtFmAZEk8l7-1802" target="1749">
                    <mxGeometry relative="1" as="geometry">
                        <mxPoint x="-340.71072319201994" y="362" as="sourcePoint"/>
                        <mxPoint x="56.695760598503966" y="694.0000000000005" as="targetPoint"/>
                    </mxGeometry>
                </mxCell>
                <mxCell id="1798" value="" style="edgeStyle=none;rounded=0;jumpStyle=none;html=1;shadow=0;labelBackgroundColor=none;startArrow=none;startFill=0;endArrow=classic;endFill=1;jettySize=auto;orthogonalLoop=1;strokeColor=#2F5B7C;strokeWidth=3;fontFamily=Helvetica;fontSize=16;fontColor=#23445D;spacing=5;exitX=1;exitY=0.5;exitDx=0;exitDy=0;entryX=0.25;entryY=1;entryDx=0;entryDy=0;" edge="1" parent="1" source="hfxsvpwYoOtFmAZEk8l7-1813" target="1749">
                    <mxGeometry relative="1" as="geometry">
                        <mxPoint x="-330.71072319201994" y="372" as="sourcePoint"/>
                        <mxPoint x="66.69576059850397" y="704.0000000000005" as="targetPoint"/>
                    </mxGeometry>
                </mxCell>
                <mxCell id="1799" value="" style="edgeStyle=none;rounded=0;jumpStyle=none;html=1;shadow=0;labelBackgroundColor=none;startArrow=none;startFill=0;endArrow=classic;endFill=1;jettySize=auto;orthogonalLoop=1;strokeColor=#2F5B7C;strokeWidth=3;fontFamily=Helvetica;fontSize=16;fontColor=#23445D;spacing=5;exitX=1;exitY=0.75;exitDx=0;exitDy=0;entryX=0.5;entryY=1;entryDx=0;entryDy=0;" edge="1" parent="1" source="1782" target="1749">
                    <mxGeometry relative="1" as="geometry">
                        <mxPoint x="-720" y="3039.090909090909" as="sourcePoint"/>
                        <mxPoint x="76.69576059850397" y="714.0000000000005" as="targetPoint"/>
                    </mxGeometry>
                </mxCell>
            </root>
        </mxGraphModel>
    </diagram>
</mxfile>